<mxfile host="app.diagrams.net" agent="Mozilla/5.0 (X11; Linux x86_64) AppleWebKit/537.36 (KHTML, like Gecko) Chrome/127.0.0.0 Safari/537.36" version="24.7.14">
  <diagram id="f106602c-feb2-e66a-4537-3a34d633f6aa" name="Page-1">
    <mxGraphModel dx="1509" dy="827" grid="1" gridSize="10" guides="1" tooltips="1" connect="0" arrows="0" fold="1" page="1" pageScale="1" pageWidth="1169" pageHeight="827" background="none" math="0" shadow="0">
      <root>
        <mxCell id="0" />
        <mxCell id="1" parent="0" />
        <mxCell id="2" value="Architecture: Media &amp;gt; Hybrid Rendering" style="fillColor=#4DA1F5;strokeColor=none;shadow=1;gradientColor=none;fontSize=14;align=left;spacingLeft=50;fontColor=#ffffff;html=1;" parent="1" vertex="1">
          <mxGeometry x="34.5" y="40" width="1100" height="40" as="geometry" />
        </mxCell>
        <mxCell id="391" value="&lt;b&gt;&lt;font style=&quot;font-size: 14px;&quot;&gt;PEER A&lt;/font&gt;&lt;/b&gt;" style="rounded=1;absoluteArcSize=1;arcSize=2;html=1;strokeColor=#6c8ebf;shadow=0;dashed=0;strokeColor=none;fontSize=12;align=right;verticalAlign=top;spacing=10;spacingTop=-4;fillColor=#dae8fc;whiteSpace=wrap;" parent="1" vertex="1">
          <mxGeometry x="80" y="100" width="451" height="440" as="geometry" />
        </mxCell>
        <mxCell id="408" style="edgeStyle=orthogonalEdgeStyle;rounded=0;elbow=vertical;html=1;startArrow=blockThin;startFill=1;endArrow=blockThin;endFill=1;jettySize=auto;orthogonalLoop=1;strokeWidth=2;fontSize=10;fontColor=#999999;dashed=0;strokeColor=#4284F3;labelBackgroundColor=none;endSize=4;startSize=4;" parent="1" source="392" target="396" edge="1">
          <mxGeometry relative="1" as="geometry">
            <Array as="points">
              <mxPoint x="220" y="196" />
              <mxPoint x="220" y="288" />
            </Array>
          </mxGeometry>
        </mxCell>
        <mxCell id="392" value="WATCHER" style="strokeColor=#dddddd;fillColor=#ffffff;shadow=1;strokeWidth=1;rounded=1;absoluteArcSize=1;arcSize=2;labelPosition=center;verticalLabelPosition=middle;align=center;verticalAlign=bottom;spacingLeft=0;fontColor=#999999;fontSize=12;whiteSpace=wrap;spacingBottom=2;html=1;" parent="1" vertex="1">
          <mxGeometry x="105" y="145" width="95" height="100" as="geometry" />
        </mxCell>
        <mxCell id="393" value="" style="dashed=0;html=1;fillColor=#757575;strokeColor=none;shape=mxgraph.gcp2.compute_engine_icon;part=1;" parent="392" vertex="1">
          <mxGeometry x="0.5" width="50" height="44.5" relative="1" as="geometry">
            <mxPoint x="-25" y="12.75" as="offset" />
          </mxGeometry>
        </mxCell>
        <mxCell id="409" style="edgeStyle=orthogonalEdgeStyle;rounded=0;elbow=vertical;html=1;startArrow=blockThin;startFill=1;endArrow=blockThin;endFill=1;jettySize=auto;orthogonalLoop=1;strokeWidth=2;fontSize=10;fontColor=#999999;dashed=0;strokeColor=#4284F3;labelBackgroundColor=none;endSize=4;startSize=4;" parent="1" source="394" target="396" edge="1">
          <mxGeometry relative="1" as="geometry">
            <Array as="points">
              <mxPoint x="220" y="369" />
              <mxPoint x="220" y="288" />
            </Array>
          </mxGeometry>
        </mxCell>
        <mxCell id="394" value="&lt;font style=&quot;font-size: 10px;&quot;&gt;SYNCHRONIZER&lt;/font&gt;" style="strokeColor=#dddddd;fillColor=#ffffff;shadow=1;strokeWidth=1;rounded=1;absoluteArcSize=1;arcSize=2;labelPosition=center;verticalLabelPosition=middle;align=center;verticalAlign=bottom;spacingLeft=0;fontColor=#999999;fontSize=12;whiteSpace=wrap;spacingBottom=2;html=1;" parent="1" vertex="1">
          <mxGeometry x="105" y="325" width="95" height="100" as="geometry" />
        </mxCell>
        <mxCell id="395" value="" style="dashed=0;html=1;fillColor=#757575;strokeColor=none;shape=mxgraph.gcp2.storage;part=1;" parent="394" vertex="1">
          <mxGeometry x="0.5" width="50" height="40" relative="1" as="geometry">
            <mxPoint x="-25" y="15" as="offset" />
          </mxGeometry>
        </mxCell>
        <mxCell id="410" style="edgeStyle=elbowEdgeStyle;rounded=0;elbow=vertical;html=1;startArrow=blockThin;startFill=1;endArrow=blockThin;endFill=1;jettySize=auto;orthogonalLoop=1;strokeWidth=2;fontSize=10;fontColor=#999999;dashed=0;strokeColor=#4284F3;labelBackgroundColor=none;endSize=4;startSize=4;" parent="1" source="396" target="398" edge="1">
          <mxGeometry relative="1" as="geometry" />
        </mxCell>
        <mxCell id="396" value="RAIDX" style="strokeColor=#dddddd;fillColor=#ffffff;shadow=1;strokeWidth=1;rounded=1;absoluteArcSize=1;arcSize=2;fontSize=17;fontColor=#000000;align=center;html=1;" parent="1" vertex="1">
          <mxGeometry x="245" y="257" width="150" height="60" as="geometry" />
        </mxCell>
        <mxCell id="411" value="Google Cloud&lt;br&gt;Interconnect&lt;br&gt;&amp;amp; VPN&lt;br&gt;" style="edgeStyle=elbowEdgeStyle;rounded=0;elbow=vertical;html=1;startArrow=blockThin;startFill=1;endArrow=blockThin;endFill=1;jettySize=auto;orthogonalLoop=1;strokeWidth=2;fontSize=12;fontColor=#999999;dashed=0;strokeColor=#9E9E9E;labelBackgroundColor=#ffffff;endSize=4;startSize=4;verticalAlign=bottom;" parent="1" source="398" edge="1">
          <mxGeometry y="22" relative="1" as="geometry">
            <mxPoint as="offset" />
            <mxPoint x="660" y="271.9473684210527" as="targetPoint" />
          </mxGeometry>
        </mxCell>
        <mxCell id="398" value="SERVER" style="strokeColor=#dddddd;fillColor=#ffffff;shadow=1;strokeWidth=1;rounded=1;absoluteArcSize=1;arcSize=2;labelPosition=center;verticalLabelPosition=middle;align=center;verticalAlign=bottom;spacingLeft=0;fontColor=#999999;fontSize=12;whiteSpace=wrap;spacingBottom=2;html=1;" parent="1" vertex="1">
          <mxGeometry x="440" y="245" width="70" height="85" as="geometry" />
        </mxCell>
        <mxCell id="399" value="" style="dashed=0;html=1;fillColor=#757575;strokeColor=none;shape=mxgraph.gcp2.gateway_icon;part=1;" parent="398" vertex="1">
          <mxGeometry x="0.5" width="50" height="22" relative="1" as="geometry">
            <mxPoint x="-25" y="24" as="offset" />
          </mxGeometry>
        </mxCell>
        <mxCell id="kHwoakAfeLoStdE32m6s-415" value="&lt;b&gt;&lt;font style=&quot;font-size: 14px;&quot;&gt;PEER A&lt;/font&gt;&lt;/b&gt;" style="rounded=1;absoluteArcSize=1;arcSize=2;html=1;strokeColor=#6c8ebf;shadow=0;dashed=0;strokeColor=none;fontSize=12;align=right;verticalAlign=top;spacing=10;spacingTop=-4;fillColor=#dae8fc;whiteSpace=wrap;" vertex="1" parent="1">
          <mxGeometry x="73.5" y="620" width="451" height="440" as="geometry" />
        </mxCell>
        <mxCell id="kHwoakAfeLoStdE32m6s-416" style="edgeStyle=orthogonalEdgeStyle;rounded=0;elbow=vertical;html=1;startArrow=blockThin;startFill=1;endArrow=blockThin;endFill=1;jettySize=auto;orthogonalLoop=1;strokeWidth=2;fontSize=10;fontColor=#999999;dashed=0;strokeColor=#4284F3;labelBackgroundColor=none;endSize=4;startSize=4;" edge="1" parent="1" source="kHwoakAfeLoStdE32m6s-417" target="kHwoakAfeLoStdE32m6s-423">
          <mxGeometry relative="1" as="geometry">
            <Array as="points">
              <mxPoint x="199" y="716" />
              <mxPoint x="199" y="808" />
            </Array>
          </mxGeometry>
        </mxCell>
        <mxCell id="kHwoakAfeLoStdE32m6s-417" value="WATCHER" style="strokeColor=#dddddd;fillColor=#ffffff;shadow=1;strokeWidth=1;rounded=1;absoluteArcSize=1;arcSize=2;labelPosition=center;verticalLabelPosition=middle;align=center;verticalAlign=bottom;spacingLeft=0;fontColor=#999999;fontSize=12;whiteSpace=wrap;spacingBottom=2;html=1;" vertex="1" parent="1">
          <mxGeometry x="84" y="665" width="95" height="100" as="geometry" />
        </mxCell>
        <mxCell id="kHwoakAfeLoStdE32m6s-418" value="" style="dashed=0;html=1;fillColor=#757575;strokeColor=none;shape=mxgraph.gcp2.compute_engine_icon;part=1;" vertex="1" parent="kHwoakAfeLoStdE32m6s-417">
          <mxGeometry x="0.5" width="50" height="44.5" relative="1" as="geometry">
            <mxPoint x="-25" y="12.75" as="offset" />
          </mxGeometry>
        </mxCell>
        <mxCell id="kHwoakAfeLoStdE32m6s-419" style="edgeStyle=orthogonalEdgeStyle;rounded=0;elbow=vertical;html=1;startArrow=blockThin;startFill=1;endArrow=blockThin;endFill=1;jettySize=auto;orthogonalLoop=1;strokeWidth=2;fontSize=10;fontColor=#999999;dashed=0;strokeColor=#4284F3;labelBackgroundColor=none;endSize=4;startSize=4;" edge="1" parent="1" source="kHwoakAfeLoStdE32m6s-420" target="kHwoakAfeLoStdE32m6s-423">
          <mxGeometry relative="1" as="geometry">
            <Array as="points">
              <mxPoint x="199" y="889" />
              <mxPoint x="199" y="808" />
            </Array>
          </mxGeometry>
        </mxCell>
        <mxCell id="kHwoakAfeLoStdE32m6s-420" value="&lt;font style=&quot;font-size: 10px;&quot;&gt;SYNCHRONIZER&lt;/font&gt;" style="strokeColor=#dddddd;fillColor=#ffffff;shadow=1;strokeWidth=1;rounded=1;absoluteArcSize=1;arcSize=2;labelPosition=center;verticalLabelPosition=middle;align=center;verticalAlign=bottom;spacingLeft=0;fontColor=#999999;fontSize=12;whiteSpace=wrap;spacingBottom=2;html=1;" vertex="1" parent="1">
          <mxGeometry x="84" y="845" width="95" height="100" as="geometry" />
        </mxCell>
        <mxCell id="kHwoakAfeLoStdE32m6s-421" value="" style="dashed=0;html=1;fillColor=#757575;strokeColor=none;shape=mxgraph.gcp2.storage;part=1;" vertex="1" parent="kHwoakAfeLoStdE32m6s-420">
          <mxGeometry x="0.5" width="50" height="40" relative="1" as="geometry">
            <mxPoint x="-25" y="15" as="offset" />
          </mxGeometry>
        </mxCell>
        <mxCell id="kHwoakAfeLoStdE32m6s-422" style="edgeStyle=elbowEdgeStyle;rounded=0;elbow=vertical;html=1;startArrow=blockThin;startFill=1;endArrow=blockThin;endFill=1;jettySize=auto;orthogonalLoop=1;strokeWidth=2;fontSize=10;fontColor=#999999;dashed=0;strokeColor=#4284F3;labelBackgroundColor=none;endSize=4;startSize=4;" edge="1" parent="1" source="kHwoakAfeLoStdE32m6s-423" target="kHwoakAfeLoStdE32m6s-424">
          <mxGeometry relative="1" as="geometry" />
        </mxCell>
        <mxCell id="kHwoakAfeLoStdE32m6s-423" value="RAIDX" style="strokeColor=#dddddd;fillColor=#ffffff;shadow=1;strokeWidth=1;rounded=1;absoluteArcSize=1;arcSize=2;fontSize=17;fontColor=#000000;align=center;html=1;" vertex="1" parent="1">
          <mxGeometry x="224" y="777" width="150" height="60" as="geometry" />
        </mxCell>
        <mxCell id="kHwoakAfeLoStdE32m6s-424" value="SERVER" style="strokeColor=#dddddd;fillColor=#ffffff;shadow=1;strokeWidth=1;rounded=1;absoluteArcSize=1;arcSize=2;labelPosition=center;verticalLabelPosition=middle;align=center;verticalAlign=bottom;spacingLeft=0;fontColor=#999999;fontSize=12;whiteSpace=wrap;spacingBottom=2;html=1;" vertex="1" parent="1">
          <mxGeometry x="419" y="765" width="70" height="85" as="geometry" />
        </mxCell>
        <mxCell id="kHwoakAfeLoStdE32m6s-425" value="" style="dashed=0;html=1;fillColor=#757575;strokeColor=none;shape=mxgraph.gcp2.gateway_icon;part=1;" vertex="1" parent="kHwoakAfeLoStdE32m6s-424">
          <mxGeometry x="0.5" width="50" height="22" relative="1" as="geometry">
            <mxPoint x="-25" y="24" as="offset" />
          </mxGeometry>
        </mxCell>
        <mxCell id="kHwoakAfeLoStdE32m6s-426" value="&lt;b&gt;&lt;font style=&quot;font-size: 14px;&quot;&gt;PEER A&lt;/font&gt;&lt;/b&gt;" style="rounded=1;absoluteArcSize=1;arcSize=2;html=1;strokeColor=#6c8ebf;shadow=0;dashed=0;strokeColor=none;fontSize=12;align=right;verticalAlign=top;spacing=10;spacingTop=-4;fillColor=#dae8fc;whiteSpace=wrap;" vertex="1" parent="1">
          <mxGeometry x="590" y="620" width="451" height="440" as="geometry" />
        </mxCell>
        <mxCell id="kHwoakAfeLoStdE32m6s-427" style="edgeStyle=orthogonalEdgeStyle;rounded=0;elbow=vertical;html=1;startArrow=blockThin;startFill=1;endArrow=blockThin;endFill=1;jettySize=auto;orthogonalLoop=1;strokeWidth=2;fontSize=10;fontColor=#999999;dashed=0;strokeColor=#4284F3;labelBackgroundColor=none;endSize=4;startSize=4;" edge="1" parent="1" source="kHwoakAfeLoStdE32m6s-428" target="kHwoakAfeLoStdE32m6s-434">
          <mxGeometry relative="1" as="geometry">
            <Array as="points">
              <mxPoint x="715.5" y="716" />
              <mxPoint x="715.5" y="808" />
            </Array>
          </mxGeometry>
        </mxCell>
        <mxCell id="kHwoakAfeLoStdE32m6s-428" value="WATCHER" style="strokeColor=#dddddd;fillColor=#ffffff;shadow=1;strokeWidth=1;rounded=1;absoluteArcSize=1;arcSize=2;labelPosition=center;verticalLabelPosition=middle;align=center;verticalAlign=bottom;spacingLeft=0;fontColor=#999999;fontSize=12;whiteSpace=wrap;spacingBottom=2;html=1;" vertex="1" parent="1">
          <mxGeometry x="600.5" y="665" width="95" height="100" as="geometry" />
        </mxCell>
        <mxCell id="kHwoakAfeLoStdE32m6s-429" value="" style="dashed=0;html=1;fillColor=#757575;strokeColor=none;shape=mxgraph.gcp2.compute_engine_icon;part=1;" vertex="1" parent="kHwoakAfeLoStdE32m6s-428">
          <mxGeometry x="0.5" width="50" height="44.5" relative="1" as="geometry">
            <mxPoint x="-25" y="12.75" as="offset" />
          </mxGeometry>
        </mxCell>
        <mxCell id="kHwoakAfeLoStdE32m6s-430" style="edgeStyle=orthogonalEdgeStyle;rounded=0;elbow=vertical;html=1;startArrow=blockThin;startFill=1;endArrow=blockThin;endFill=1;jettySize=auto;orthogonalLoop=1;strokeWidth=2;fontSize=10;fontColor=#999999;dashed=0;strokeColor=#4284F3;labelBackgroundColor=none;endSize=4;startSize=4;" edge="1" parent="1" source="kHwoakAfeLoStdE32m6s-431" target="kHwoakAfeLoStdE32m6s-434">
          <mxGeometry relative="1" as="geometry">
            <Array as="points">
              <mxPoint x="715.5" y="889" />
              <mxPoint x="715.5" y="808" />
            </Array>
          </mxGeometry>
        </mxCell>
        <mxCell id="kHwoakAfeLoStdE32m6s-431" value="&lt;font style=&quot;font-size: 10px;&quot;&gt;SYNCHRONIZER&lt;/font&gt;" style="strokeColor=#dddddd;fillColor=#ffffff;shadow=1;strokeWidth=1;rounded=1;absoluteArcSize=1;arcSize=2;labelPosition=center;verticalLabelPosition=middle;align=center;verticalAlign=bottom;spacingLeft=0;fontColor=#999999;fontSize=12;whiteSpace=wrap;spacingBottom=2;html=1;" vertex="1" parent="1">
          <mxGeometry x="600.5" y="845" width="95" height="100" as="geometry" />
        </mxCell>
        <mxCell id="kHwoakAfeLoStdE32m6s-432" value="" style="dashed=0;html=1;fillColor=#757575;strokeColor=none;shape=mxgraph.gcp2.storage;part=1;" vertex="1" parent="kHwoakAfeLoStdE32m6s-431">
          <mxGeometry x="0.5" width="50" height="40" relative="1" as="geometry">
            <mxPoint x="-25" y="15" as="offset" />
          </mxGeometry>
        </mxCell>
        <mxCell id="kHwoakAfeLoStdE32m6s-433" style="edgeStyle=elbowEdgeStyle;rounded=0;elbow=vertical;html=1;startArrow=blockThin;startFill=1;endArrow=blockThin;endFill=1;jettySize=auto;orthogonalLoop=1;strokeWidth=2;fontSize=10;fontColor=#999999;dashed=0;strokeColor=#4284F3;labelBackgroundColor=none;endSize=4;startSize=4;" edge="1" parent="1" source="kHwoakAfeLoStdE32m6s-434" target="kHwoakAfeLoStdE32m6s-435">
          <mxGeometry relative="1" as="geometry" />
        </mxCell>
        <mxCell id="kHwoakAfeLoStdE32m6s-434" value="RAIDX" style="strokeColor=#dddddd;fillColor=#ffffff;shadow=1;strokeWidth=1;rounded=1;absoluteArcSize=1;arcSize=2;fontSize=17;fontColor=#000000;align=center;html=1;" vertex="1" parent="1">
          <mxGeometry x="740.5" y="777" width="150" height="60" as="geometry" />
        </mxCell>
        <mxCell id="kHwoakAfeLoStdE32m6s-435" value="SERVER" style="strokeColor=#dddddd;fillColor=#ffffff;shadow=1;strokeWidth=1;rounded=1;absoluteArcSize=1;arcSize=2;labelPosition=center;verticalLabelPosition=middle;align=center;verticalAlign=bottom;spacingLeft=0;fontColor=#999999;fontSize=12;whiteSpace=wrap;spacingBottom=2;html=1;" vertex="1" parent="1">
          <mxGeometry x="935.5" y="765" width="70" height="85" as="geometry" />
        </mxCell>
        <mxCell id="kHwoakAfeLoStdE32m6s-436" value="" style="dashed=0;html=1;fillColor=#757575;strokeColor=none;shape=mxgraph.gcp2.gateway_icon;part=1;" vertex="1" parent="kHwoakAfeLoStdE32m6s-435">
          <mxGeometry x="0.5" width="50" height="22" relative="1" as="geometry">
            <mxPoint x="-25" y="24" as="offset" />
          </mxGeometry>
        </mxCell>
        <mxCell id="kHwoakAfeLoStdE32m6s-437" value="&lt;b&gt;&lt;font style=&quot;font-size: 14px;&quot;&gt;PEER A&lt;/font&gt;&lt;/b&gt;" style="rounded=1;absoluteArcSize=1;arcSize=2;html=1;strokeColor=#6c8ebf;shadow=0;dashed=0;strokeColor=none;fontSize=12;align=right;verticalAlign=top;spacing=10;spacingTop=-4;fillColor=#dae8fc;whiteSpace=wrap;" vertex="1" parent="1">
          <mxGeometry x="620" y="100" width="451" height="440" as="geometry" />
        </mxCell>
        <mxCell id="kHwoakAfeLoStdE32m6s-438" style="edgeStyle=orthogonalEdgeStyle;rounded=0;elbow=vertical;html=1;startArrow=blockThin;startFill=1;endArrow=blockThin;endFill=1;jettySize=auto;orthogonalLoop=1;strokeWidth=2;fontSize=10;fontColor=#999999;dashed=0;strokeColor=#4284F3;labelBackgroundColor=none;endSize=4;startSize=4;" edge="1" parent="1" source="kHwoakAfeLoStdE32m6s-439" target="kHwoakAfeLoStdE32m6s-445">
          <mxGeometry relative="1" as="geometry">
            <Array as="points">
              <mxPoint x="970" y="287" />
            </Array>
          </mxGeometry>
        </mxCell>
        <mxCell id="kHwoakAfeLoStdE32m6s-439" value="WATCHER" style="strokeColor=#dddddd;fillColor=#ffffff;shadow=1;strokeWidth=1;rounded=1;absoluteArcSize=1;arcSize=2;labelPosition=center;verticalLabelPosition=middle;align=center;verticalAlign=bottom;spacingLeft=0;fontColor=#999999;fontSize=12;whiteSpace=wrap;spacingBottom=2;html=1;" vertex="1" parent="1">
          <mxGeometry x="923" y="140" width="95" height="100" as="geometry" />
        </mxCell>
        <mxCell id="kHwoakAfeLoStdE32m6s-440" value="" style="dashed=0;html=1;fillColor=#757575;strokeColor=none;shape=mxgraph.gcp2.compute_engine_icon;part=1;" vertex="1" parent="kHwoakAfeLoStdE32m6s-439">
          <mxGeometry x="0.5" width="50" height="44.5" relative="1" as="geometry">
            <mxPoint x="-25" y="12.75" as="offset" />
          </mxGeometry>
        </mxCell>
        <mxCell id="kHwoakAfeLoStdE32m6s-441" style="edgeStyle=orthogonalEdgeStyle;rounded=0;elbow=vertical;html=1;startArrow=blockThin;startFill=1;endArrow=blockThin;endFill=1;jettySize=auto;orthogonalLoop=1;strokeWidth=2;fontSize=10;fontColor=#999999;dashed=0;strokeColor=#4284F3;labelBackgroundColor=none;endSize=4;startSize=4;entryX=1.009;entryY=0.499;entryDx=0;entryDy=0;entryPerimeter=0;" edge="1" parent="1" source="kHwoakAfeLoStdE32m6s-442" target="kHwoakAfeLoStdE32m6s-445">
          <mxGeometry relative="1" as="geometry">
            <Array as="points">
              <mxPoint x="970" y="287" />
            </Array>
            <mxPoint x="840" y="330" as="targetPoint" />
          </mxGeometry>
        </mxCell>
        <mxCell id="kHwoakAfeLoStdE32m6s-442" value="&lt;font style=&quot;font-size: 10px;&quot;&gt;SYNCHRONIZER&lt;/font&gt;" style="strokeColor=#dddddd;fillColor=#ffffff;shadow=1;strokeWidth=1;rounded=1;absoluteArcSize=1;arcSize=2;labelPosition=center;verticalLabelPosition=middle;align=center;verticalAlign=bottom;spacingLeft=0;fontColor=#999999;fontSize=12;whiteSpace=wrap;spacingBottom=2;html=1;" vertex="1" parent="1">
          <mxGeometry x="920.5" y="330" width="95" height="100" as="geometry" />
        </mxCell>
        <mxCell id="kHwoakAfeLoStdE32m6s-443" value="" style="dashed=0;html=1;fillColor=#757575;strokeColor=none;shape=mxgraph.gcp2.storage;part=1;" vertex="1" parent="kHwoakAfeLoStdE32m6s-442">
          <mxGeometry x="0.5" width="50" height="40" relative="1" as="geometry">
            <mxPoint x="-25" y="15" as="offset" />
          </mxGeometry>
        </mxCell>
        <mxCell id="kHwoakAfeLoStdE32m6s-444" style="edgeStyle=elbowEdgeStyle;rounded=0;elbow=vertical;html=1;startArrow=blockThin;startFill=1;endArrow=blockThin;endFill=1;jettySize=auto;orthogonalLoop=1;strokeWidth=2;fontSize=10;fontColor=#999999;dashed=0;strokeColor=#4284F3;labelBackgroundColor=none;endSize=4;startSize=4;" edge="1" parent="1" source="kHwoakAfeLoStdE32m6s-445" target="kHwoakAfeLoStdE32m6s-446">
          <mxGeometry relative="1" as="geometry" />
        </mxCell>
        <mxCell id="kHwoakAfeLoStdE32m6s-445" value="RAIDX" style="strokeColor=#dddddd;fillColor=#ffffff;shadow=1;strokeWidth=1;rounded=1;absoluteArcSize=1;arcSize=2;fontSize=17;fontColor=#000000;align=center;html=1;" vertex="1" parent="1">
          <mxGeometry x="770.5" y="257" width="150" height="60" as="geometry" />
        </mxCell>
        <mxCell id="kHwoakAfeLoStdE32m6s-446" value="SERVER" style="strokeColor=#dddddd;fillColor=#ffffff;shadow=1;strokeWidth=1;rounded=1;absoluteArcSize=1;arcSize=2;labelPosition=center;verticalLabelPosition=middle;align=center;verticalAlign=bottom;spacingLeft=0;fontColor=#999999;fontSize=12;whiteSpace=wrap;spacingBottom=2;html=1;" vertex="1" parent="1">
          <mxGeometry x="620" y="244.5" width="70" height="85" as="geometry" />
        </mxCell>
        <mxCell id="kHwoakAfeLoStdE32m6s-447" value="" style="dashed=0;html=1;fillColor=#757575;strokeColor=none;shape=mxgraph.gcp2.gateway_icon;part=1;" vertex="1" parent="kHwoakAfeLoStdE32m6s-446">
          <mxGeometry x="0.5" width="50" height="22" relative="1" as="geometry">
            <mxPoint x="-25" y="24" as="offset" />
          </mxGeometry>
        </mxCell>
      </root>
    </mxGraphModel>
  </diagram>
</mxfile>
